<svg width="910" height="718" viewBox="0 0 910 718" fill="none" xmlns="http://www.w3.org/2000/svg">
<g clip-path="url(#clip0_977_10691)">
<path d="M314.299 691.15C487.881 691.15 628.598 550.433 628.598 376.851C628.598 203.268 487.881 62.5521 314.299 62.5521C140.716 62.5521 0 203.268 0 376.851C0 550.433 140.716 691.15 314.299 691.15Z" fill="url(#paint0_radial_977_10691)"/>
<path d="M378.041 168.009C467.059 195.696 531.693 278.726 531.693 376.851C531.693 464.475 480.154 540.061 405.748 574.946" stroke="#28AE83" stroke-width="1.32" stroke-miterlimit="10"/>
<path d="M314.299 541.435C405.762 541.435 479.908 467.289 479.908 375.826C479.908 284.362 405.762 210.216 314.299 210.216C222.835 210.216 148.689 284.362 148.689 375.826C148.689 467.289 222.835 541.435 314.299 541.435Z" fill="#1F2331"/>
<path d="M314.299 541.435C405.762 541.435 479.908 467.289 479.908 375.826C479.908 284.362 405.762 210.216 314.299 210.216C222.835 210.216 148.689 284.362 148.689 375.826C148.689 467.289 222.835 541.435 314.299 541.435Z" stroke="#28AE83" stroke-miterlimit="10"/>
<path d="M532.206 375.313H688.073" stroke="url(#paint1_linear_977_10691)" stroke-linecap="round" stroke-linejoin="round"/>
<path d="M522.464 439.403L688.586 471.192" stroke="url(#paint2_linear_977_10691)" stroke-linecap="round" stroke-linejoin="round"/>
<path d="M491.701 502.981L688.586 596.296" stroke="url(#paint3_linear_977_10691)" stroke-linecap="round" stroke-linejoin="round"/>
<path d="M522.464 315.324L688.586 283.535" stroke="url(#paint4_linear_977_10691)" stroke-linecap="round" stroke-linejoin="round"/>
<path d="M491.701 251.747L688.586 158.431" stroke="url(#paint5_linear_977_10691)" stroke-linecap="round" stroke-linejoin="round"/>
<path d="M524.043 324.041C529.151 324.041 533.292 319.899 533.292 314.791C533.292 309.683 529.151 305.542 524.043 305.542C518.935 305.542 514.793 309.683 514.793 314.791C514.793 319.899 518.935 324.041 524.043 324.041Z" fill="#F1EFEE"/>
<path d="M559.36 544.511C566.688 544.511 572.629 538.57 572.629 531.242C572.629 523.914 566.688 517.973 559.36 517.973C552.031 517.973 546.09 523.914 546.09 531.242C546.09 538.57 552.031 544.511 559.36 544.511Z" fill="url(#paint6_linear_977_10691)"/>
<path d="M576.997 200.208L536.207 219.541C531.09 221.967 528.907 228.082 531.333 233.2C533.759 238.317 539.874 240.5 544.991 238.074L585.781 218.74C590.899 216.315 593.081 210.2 590.656 205.082C588.23 199.964 582.115 197.782 576.997 200.208Z" fill="url(#paint7_linear_977_10691)"/>
<path d="M316.35 593.22C197.132 593.22 100.494 496.582 100.494 377.364" stroke="#28AE83" stroke-width="1.01" stroke-linecap="round" stroke-linejoin="round"/>
<path d="M313.212 247.132C310.638 247.132 308.546 245.04 308.546 242.466L308.546 -7.62939e-05H317.888L317.888 242.466C317.888 245.04 315.796 247.132 313.222 247.132H313.212Z" fill="url(#paint8_linear_977_10691)"/>
<path d="M313.078 498.366H313.068C310.491 498.366 308.402 500.455 308.402 503.032V713.145C308.402 715.722 310.491 717.811 313.068 717.811H313.078C315.655 717.811 317.744 715.722 317.744 713.145V503.032C317.744 500.455 315.655 498.366 313.078 498.366Z" fill="url(#paint9_linear_977_10691)"/>
<path d="M313.53 461.963C361.102 461.963 399.667 423.398 399.667 375.825C399.667 328.253 361.102 289.688 313.53 289.688C265.958 289.688 227.393 328.253 227.393 375.825C227.393 423.398 265.958 461.963 313.53 461.963Z" fill="url(#paint10_linear_977_10691)"/>
<path d="M270.204 478.883C284.08 478.883 295.328 467.635 295.328 453.759C295.328 439.884 284.08 428.636 270.204 428.636C256.329 428.636 245.081 439.884 245.081 453.759C245.081 467.635 256.329 478.883 270.204 478.883Z" fill="#28AE83"/>
<path d="M313.663 404.661C329.979 404.661 343.206 391.434 343.206 375.118C343.206 358.802 329.979 345.575 313.663 345.575C297.347 345.575 284.12 358.802 284.12 375.118C284.12 391.434 297.347 404.661 313.663 404.661Z" fill="url(#paint11_radial_977_10691)"/>
<path d="M312.843 623.47C344.56 623.47 370.268 597.762 370.268 566.045H255.418C255.418 597.762 281.126 623.47 312.843 623.47Z" fill="#1F2331"/>
<path d="M89.7262 377.364H68.7046" stroke="#28AE83" stroke-width="1.01" stroke-linecap="round" stroke-linejoin="round"/>
<path d="M152.34 538.933L137.348 553.935" stroke="#28AE83" stroke-width="1.01" stroke-linecap="round" stroke-linejoin="round"/>
<path d="M108.194 470.279L89.2031 479.283" stroke="#28AE83" stroke-width="1.01" stroke-linecap="round" stroke-linejoin="round"/>
<path d="M127.411 503.596L110.009 515.399" stroke="#28AE83" stroke-width="1.01" stroke-linecap="round" stroke-linejoin="round"/>
<path d="M95.5304 428.646L75.1035 433.619" stroke="#28AE83" stroke-width="1.01" stroke-linecap="round" stroke-linejoin="round"/>
<path d="M139.307 521.059L122.961 534.287" stroke="#28AE83" stroke-width="1.01" stroke-linecap="round" stroke-linejoin="round"/>
<path d="M116.654 488.583L98.4526 499.094" stroke="#28AE83" stroke-width="1.01" stroke-linecap="round" stroke-linejoin="round"/>
<path d="M91.6539 403.42L70.8169 406.158" stroke="#28AE83" stroke-width="1.01" stroke-linecap="round" stroke-linejoin="round"/>
<path d="M80.5483 457.492L100.38 450.539" stroke="#28AE83" stroke-width="1.01" stroke-linecap="round" stroke-linejoin="round"/>
<path d="M311.089 602.828V623.85" stroke="#28AE83" stroke-width="1.01" stroke-linecap="round" stroke-linejoin="round"/>
<path d="M218.173 582.309L209.17 601.31" stroke="#28AE83" stroke-width="1.01" stroke-linecap="round" stroke-linejoin="round"/>
<path d="M184.857 565.153L173.054 582.545" stroke="#28AE83" stroke-width="1.01" stroke-linecap="round" stroke-linejoin="round"/>
<path d="M259.806 597.034L254.833 617.451" stroke="#28AE83" stroke-width="1.01" stroke-linecap="round" stroke-linejoin="round"/>
<path d="M167.393 553.248L154.165 569.594" stroke="#28AE83" stroke-width="1.01" stroke-linecap="round" stroke-linejoin="round"/>
<path d="M200.905 573.849L190.394 592.061" stroke="#28AE83" stroke-width="1.01" stroke-linecap="round" stroke-linejoin="round"/>
<path d="M285.032 600.9L282.294 621.737" stroke="#28AE83" stroke-width="1.01" stroke-linecap="round" stroke-linejoin="round"/>
<path d="M230.971 612.006L237.923 592.174" stroke="#28AE83" stroke-width="1.01" stroke-linecap="round" stroke-linejoin="round"/>
<path d="M312.843 694.226C344.56 694.226 370.268 668.518 370.268 636.801H255.418C255.418 668.518 281.126 694.226 312.843 694.226Z" fill="#1F2331"/>
<path d="M195.347 259.95L59.9883 124.592" stroke="url(#paint12_linear_977_10691)" stroke-miterlimit="10"/>
<path d="M160.482 314.299L24.0981 254.823" stroke="url(#paint13_linear_977_10691)" stroke-miterlimit="10"/>
<path d="M312.843 128.181C281.126 128.181 255.418 153.888 255.418 185.605H370.268C370.268 153.888 344.56 128.181 312.843 128.181Z" fill="#1F2331"/>
<path d="M312.843 57.4249C281.126 57.4249 255.418 83.1328 255.418 114.85H370.268C370.268 83.1328 344.56 57.4249 312.843 57.4249Z" fill="#1F2331"/>
<path d="M609.699 668.477C773.568 668.477 906.411 535.634 906.411 371.765C906.411 207.895 773.568 75.0522 609.699 75.0522C445.829 75.0522 312.986 207.895 312.986 371.765C312.986 535.634 445.829 668.477 609.699 668.477Z" stroke="url(#paint14_linear_977_10691)" stroke-width="7" stroke-miterlimit="10"/>
<path d="M512.209 283.535L602.449 250.721" stroke="url(#paint15_linear_977_10691)" stroke-linecap="round" stroke-linejoin="round"/>
<path d="M529.642 346.088L626.034 335.833" stroke="url(#paint16_linear_977_10691)" stroke-linecap="round" stroke-linejoin="round"/>
<path d="M529.642 407.614L626.034 418.894" stroke="url(#paint17_linear_977_10691)" stroke-linecap="round" stroke-linejoin="round"/>
<path d="M511.184 469.141L602.449 501.955" stroke="url(#paint18_linear_977_10691)" stroke-linecap="round" stroke-linejoin="round"/>
<path d="M465.039 130.744C475.8 130.744 484.523 122.021 484.523 111.261C484.523 100.5 475.8 91.7773 465.039 91.7773C454.279 91.7773 445.556 100.5 445.556 111.261C445.556 122.021 454.279 130.744 465.039 130.744Z" fill="url(#paint19_linear_977_10691)"/>
<path d="M399.123 592.01C407.058 592.01 413.49 585.578 413.49 577.643C413.49 569.709 407.058 563.277 399.123 563.277C391.189 563.277 384.757 569.709 384.757 577.643C384.757 585.578 391.189 592.01 399.123 592.01Z" fill="#1F2331" stroke="#28AE83" stroke-width="1.55" stroke-miterlimit="10"/>
<path d="M390.879 182.693C398.814 182.693 405.246 176.261 405.246 168.327C405.246 160.392 398.814 153.96 390.879 153.96C382.945 153.96 376.513 160.392 376.513 168.327C376.513 176.261 382.945 182.693 390.879 182.693Z" fill="#1F2331" stroke="#28AE83" stroke-width="1.55" stroke-miterlimit="10"/>
</g>
<defs>
<radialGradient id="paint0_radial_977_10691" cx="0" cy="0" r="1" gradientUnits="userSpaceOnUse" gradientTransform="translate(314.299 376.851) scale(314.299)">
<stop stop-color="#28AE83"/>
<stop offset="0.16" stop-color="#258E70"/>
<stop offset="0.43" stop-color="#226055"/>
<stop offset="0.67" stop-color="#203E41"/>
<stop offset="0.87" stop-color="#1F2A35"/>
<stop offset="1" stop-color="#1F2331"/>
</radialGradient>
<linearGradient id="paint1_linear_977_10691" x1="nan" y1="nan" x2="nan" y2="nan" gradientUnits="userSpaceOnUse">
<stop stop-color="#28AE83"/>
<stop offset="1" stop-color="#1F2331"/>
</linearGradient>
<linearGradient id="paint2_linear_977_10691" x1="521.951" y1="455.297" x2="689.099" y2="455.297" gradientUnits="userSpaceOnUse">
<stop stop-color="#28AE83"/>
<stop offset="1" stop-color="#1F2331"/>
</linearGradient>
<linearGradient id="paint3_linear_977_10691" x1="491.188" y1="549.638" x2="689.099" y2="549.638" gradientUnits="userSpaceOnUse">
<stop stop-color="#28AE83"/>
<stop offset="1" stop-color="#1F2331"/>
</linearGradient>
<linearGradient id="paint4_linear_977_10691" x1="521.951" y1="299.43" x2="689.099" y2="299.43" gradientUnits="userSpaceOnUse">
<stop stop-color="#28AE83"/>
<stop offset="1" stop-color="#1F2331"/>
</linearGradient>
<linearGradient id="paint5_linear_977_10691" x1="491.188" y1="205.089" x2="689.099" y2="205.089" gradientUnits="userSpaceOnUse">
<stop stop-color="#28AE83"/>
<stop offset="1" stop-color="#1F2331"/>
</linearGradient>
<linearGradient id="paint6_linear_977_10691" x1="570.855" y1="537.877" x2="547.875" y2="524.618" gradientUnits="userSpaceOnUse">
<stop stop-color="#28AE83"/>
<stop offset="1" stop-color="#F1EFEE"/>
</linearGradient>
<linearGradient id="paint7_linear_977_10691" x1="590.195" y1="227.009" x2="528.565" y2="229.406" gradientUnits="userSpaceOnUse">
<stop stop-color="#28AE83"/>
<stop offset="1" stop-color="#F1EFEE"/>
</linearGradient>
<linearGradient id="paint8_linear_977_10691" x1="259.284" y1="28.4458" x2="367.776" y2="216.358" gradientUnits="userSpaceOnUse">
<stop stop-color="#1F2331"/>
<stop offset="0.18" stop-color="#1F2633"/>
<stop offset="0.35" stop-color="#1F3139"/>
<stop offset="0.52" stop-color="#214444"/>
<stop offset="0.67" stop-color="#225E54"/>
<stop offset="0.83" stop-color="#258068"/>
<stop offset="0.98" stop-color="#27A980"/>
<stop offset="1" stop-color="#28AE83"/>
</linearGradient>
<linearGradient id="paint9_linear_977_10691" x1="360.895" y1="690.924" x2="265.251" y2="525.253" gradientUnits="userSpaceOnUse">
<stop stop-color="#1F2331"/>
<stop offset="0.18" stop-color="#1F2633"/>
<stop offset="0.35" stop-color="#1F3139"/>
<stop offset="0.52" stop-color="#214444"/>
<stop offset="0.67" stop-color="#225E54"/>
<stop offset="0.83" stop-color="#258068"/>
<stop offset="0.98" stop-color="#27A980"/>
<stop offset="1" stop-color="#28AE83"/>
</linearGradient>
<linearGradient id="paint10_linear_977_10691" x1="356.609" y1="450.437" x2="270.451" y2="301.214" gradientUnits="userSpaceOnUse">
<stop stop-color="#3D3D58"/>
<stop offset="0.2" stop-color="#3C4059"/>
<stop offset="0.39" stop-color="#3A4B5D"/>
<stop offset="0.57" stop-color="#365E64"/>
<stop offset="0.74" stop-color="#31786E"/>
<stop offset="0.91" stop-color="#2B997B"/>
<stop offset="1" stop-color="#28AE83"/>
</linearGradient>
<radialGradient id="paint11_radial_977_10691" cx="0" cy="0" r="1" gradientUnits="userSpaceOnUse" gradientTransform="translate(313.653 375.118) rotate(180) scale(29.5431 29.5431)">
<stop stop-color="#1F2331"/>
<stop offset="0.37" stop-color="#1F2532"/>
<stop offset="0.53" stop-color="#1F2C36"/>
<stop offset="0.65" stop-color="#20383D"/>
<stop offset="0.75" stop-color="#214A48"/>
<stop offset="0.83" stop-color="#236155"/>
<stop offset="0.91" stop-color="#247D66"/>
<stop offset="0.97" stop-color="#269E79"/>
<stop offset="1" stop-color="#28AE83"/>
</radialGradient>
<linearGradient id="paint12_linear_977_10691" x1="59.6294" y1="192.271" x2="195.706" y2="192.271" gradientUnits="userSpaceOnUse">
<stop stop-color="#1F2331"/>
<stop offset="0.18" stop-color="#1F2633"/>
<stop offset="0.35" stop-color="#1F3139"/>
<stop offset="0.52" stop-color="#214444"/>
<stop offset="0.67" stop-color="#225E54"/>
<stop offset="0.83" stop-color="#258068"/>
<stop offset="0.98" stop-color="#27A980"/>
<stop offset="1" stop-color="#28AE83"/>
</linearGradient>
<linearGradient id="paint13_linear_977_10691" x1="23.8931" y1="284.561" x2="160.687" y2="284.561" gradientUnits="userSpaceOnUse">
<stop stop-color="#1F2331"/>
<stop offset="0.18" stop-color="#1F2633"/>
<stop offset="0.35" stop-color="#1F3139"/>
<stop offset="0.52" stop-color="#214444"/>
<stop offset="0.67" stop-color="#225E54"/>
<stop offset="0.83" stop-color="#258068"/>
<stop offset="0.98" stop-color="#27A980"/>
<stop offset="1" stop-color="#28AE83"/>
</linearGradient>
<linearGradient id="paint14_linear_977_10691" x1="910" y1="371.775" x2="309.408" y2="371.775" gradientUnits="userSpaceOnUse">
<stop stop-color="#1F2331"/>
<stop offset="0.1" stop-color="#20383D"/>
<stop offset="0.38" stop-color="#257461"/>
<stop offset="0.59" stop-color="#279978"/>
<stop offset="0.7" stop-color="#29A881"/>
<stop offset="1" stop-color="#A8EDD7"/>
</linearGradient>
<linearGradient id="paint15_linear_977_10691" x1="511.697" y1="267.128" x2="602.961" y2="267.128" gradientUnits="userSpaceOnUse">
<stop stop-color="#28AE83"/>
<stop offset="1" stop-color="#1F2331"/>
</linearGradient>
<linearGradient id="paint16_linear_977_10691" x1="529.129" y1="340.96" x2="626.547" y2="340.96" gradientUnits="userSpaceOnUse">
<stop stop-color="#28AE83"/>
<stop offset="1" stop-color="#1F2331"/>
</linearGradient>
<linearGradient id="paint17_linear_977_10691" x1="529.129" y1="413.254" x2="626.547" y2="413.254" gradientUnits="userSpaceOnUse">
<stop stop-color="#28AE83"/>
<stop offset="1" stop-color="#1F2331"/>
</linearGradient>
<linearGradient id="paint18_linear_977_10691" x1="510.671" y1="485.548" x2="602.961" y2="485.548" gradientUnits="userSpaceOnUse">
<stop stop-color="#28AE83"/>
<stop offset="1" stop-color="#1F2331"/>
</linearGradient>
<linearGradient id="paint19_linear_977_10691" x1="484.523" y1="111.261" x2="445.556" y2="111.261" gradientUnits="userSpaceOnUse">
<stop stop-color="#1F2331"/>
<stop offset="0.1" stop-color="#20383D"/>
<stop offset="0.38" stop-color="#257461"/>
<stop offset="0.59" stop-color="#279978"/>
<stop offset="0.7" stop-color="#29A881"/>
<stop offset="1" stop-color="#A8EDD7"/>
</linearGradient>
<clipPath id="clip0_977_10691">
<rect width="910" height="717.811" fill="white"/>
</clipPath>
</defs>
</svg>
